{"title":"The Pacific (2010)  1080p  - (Episode 7)","uid":8809719,"size":2366638530,"categoryP":"video","categoryS":"hd___tv_shows","magnet":"?xt=urn:btih:f33ddad31cefdf3450d9e2538a227f4e818c6781&amp;dn=The+Pacific+%282010%29++1080p++-+%28Episode+7%29&amp;tr=udp%3A%2F%2Ftracker.openbittorrent.com%3A80&amp;tr=udp%3A%2F%2Fopen.demonii.com%3A1337&amp;tr=udp%3A%2F%2Ftracker.coppersurfer.tk%3A6969&amp;tr=udp%3A%2F%2Fexodus.desync.com%3A6969","seeders":1,"leechers":1,"uploader":"molpol","files":-1,"time":1376428684,"description":"\nThe Pacific (2010)\n\n\nEpisode 7: Peleliu Hills\n\nSledge finds the carnage and death of his companions on Peleilu increasingly difficult to bear as Basilone continues his bond drive in the States.\n\n\nMedia Info:\n\n\nFormat                                   : Matroska\nFormat version                           : Version 4 / Version 2\nFile size                                : 2.20 GiB\nDuration                                 : 50mn 35s\nOverall bit rate                         : 6 235 Kbps\nMovie name                               : PACIFIC_DISC4.Title800.BlurayRip\nEncoded date                             : UTC 2013-07-22 22:05:06\nWriting application                      : mkvmerge v6.1.0 ('Old Devil') built on Mar  2 2013 22:22:31\nWriting library                          : libebml v1.3.0 + libmatroska v1.4.0\n\nVideo\nID                                       : 1\nFormat                                   : AVC\nFormat/Info                              : Advanced Video Codec\nFormat profile                           : &lt;a class=&quot;__cf_email__&quot; href=&quot;/cdn-cgi/l/email-protection&quot; data-cfemail=&quot;1850717f7058542c3629&quot;&gt;[email&amp;#160;protected]&lt;/a&gt;&lt;script cf-hash='f9e31' type=&quot;text/javascript&quot;&gt;\n/* &lt;![CDATA[ */!function(){try{var t=&quot;currentScript&quot;in document?document.currentScript:function(){for(var t=document.getElementsByTagName(&quot;script&quot;),e=t.length;e--;)if(t[e].getAttribute(&quot;cf-hash&quot;))return t[e]}();if(t&amp;&amp;t.previousSibling){var e,r,n,i,c=t.previousSibling,a=c.getAttribute(&quot;data-cfemail&quot;);if(a){for(e=&quot;&quot;,r=parseInt(a.substr(0,2),16),n=2;a.length-n;n+=2)i=parseInt(a.substr(n,2),16)^r,e+=String.fromCharCode(i);e=document.createTextNode(e),c.parentNode.replaceChild(e,c)}}}catch(u){}}();/* ]]&gt; */&lt;/script&gt;\nFormat settings, CABAC                   : Yes\nFormat settings, ReFrames                : 2 frames\nCodec ID                                 : V_MPEG4/ISO/AVC\nDuration                                 : 50mn 35s\nBit rate                                 : 5 215 Kbps\nWidth                                    : 1 920 pixels\nHeight                                   : 1 080 pixels\nDisplay aspect ratio                     : 16:9\nFrame rate mode                          : Constant\nFrame rate                               : 23.976 fps\nColor space                              : YUV\nChroma subsampling                       : 4:2:0\nBit depth                                : 8 bits\nScan type                                : Progressive\nBits/(Pixel*Frame)                       : 0.105\nStream size                              : 1.84 GiB (84%)\nWriting library                          : x264 core\nDefault                                  : Yes\nForced                                   : No\nColor primaries                          : BT.709\nTransfer characteristics                 : BT.709\nMatrix coefficients                      : BT.709\n\nAudio #1\nID                                       : 2\nFormat                                   : DTS\nFormat/Info                              : Digital Theater Systems\nMode                                     : 16\nFormat settings, Endianness              : Big\nCodec ID                                 : A_DTS\nDuration                                 : 50mn 35s\nBit rate mode                            : Constant\nBit rate                                 : 768 Kbps\nChannel(s)                               : 2 channels\nChannel positions                        : Front: L R\nSampling rate                            : 48.0 KHz\nBit depth                                : 24 bits\nCompression mode                         : Lossy\nStream size                              : 278 MiB (12%)\nLanguage                                 :  Latin Spanish\nDefault                                  : Yes\nForced                                   : No\n\nAudio #2\nID                                       : 3\nFormat                                   : AC-3\nFormat/Info                              : Audio Coding 3\nMode extension                           : CM (complete main)\nFormat settings, Endianness              : Big\nCodec ID                                 : A_AC3\nDuration                                 : 50mn 35s\nBit rate mode                            : Constant\nBit rate                                 : 128 Kbps\nChannel(s)                               : 2 channels\nChannel positions                        : Front: L R\nSampling rate                            : 48.0 KHz\nBit depth                                : 16 bits\nCompression mode                         : Lossy\nStream size                              : 46.3 MiB (2%)\nLanguage                                 : English\nDefault                                  : No\nForced                                   : No\n\nText\nID                                       : 4\nFormat                                   : PGS\nMuxing mode                              : zlib\nCodec ID                                 : S_HDMV/PGS\nCodec ID/Info                            : The same subtitle format used on BDs/HD-DVDs\nLanguage                                 : Spanish\nDefault                                  : No\nForced                                   : No\n\nMenu\n00:00:00.000                             : en:(01)00:00:00:000\n00:02:52.672                             : en:(02)00:02:52:672\n00:11:53.421                             : en:(03)00:11:53:421\n00:14:38.085                             : en:(04)00:14:38:085\n00:24:07.279                             : en:(05)00:24:07:279\n00:30:23.613                             : en:(06)00:30:23:613\n00:38:10.121                             : en:(07)00:38:10:121\n00:46:22.613                             : en:(08)00:46:22:613\n00:50:34.781                             : en:(09)00:50:34:781\n","torrent":{"xt":"urn:btih:f33ddad31cefdf3450d9e2538a227f4e818c6781","amp;dn":"The+Pacific+%282010%29++1080p++-+%28Episode+7%29","amp;tr":["udp%3A%2F%2Ftracker.openbittorrent.com%3A80","udp%3A%2F%2Fopen.demonii.com%3A1337","udp%3A%2F%2Ftracker.coppersurfer.tk%3A6969","udp%3A%2F%2Fexodus.desync.com%3A6969"],"infoHash":"f33ddad31cefdf3450d9e2538a227f4e818c6781","infoHashBuffer":{"type":"Buffer","data":[243,61,218,211,28,239,223,52,80,217,226,83,138,34,127,78,129,140,103,129]},"announce":[],"urlList":[]}}